<?xml version="1.0" encoding="utf-8"?>
<!-- Generator: Adobe Illustrator 24.0.1, SVG Export Plug-In . SVG Version: 6.00 Build 0)  -->
<svg version="1.1" id="Layer_1" xmlns="http://www.w3.org/2000/svg" xmlns:xlink="http://www.w3.org/1999/xlink" x="0px" y="0px"
	 viewBox="0 0 45 40" style="enable-background:new 0 0 45 40;" xml:space="preserve">
<style type="text/css">
	.st0{fill:#63BCA5;}
	.st1{fill:#229647;}
	.st2{fill:#8B3E96;}
	.st3{fill:#91BB3E;}
	.st4{fill:#D94931;}
	.st5{fill:#F492A2;}
	.st6{fill:#E69928;}
	.st7{fill:#FFC122;}
	.st8{fill:#F4C134;}
	.st9{fill:#347EB1;}
</style>
<g>
	<path class="st0" d="M43.3,16.2c-2.1-2.1-5.6-2.1-7.7,0L33.8,18l-3.6-3.6l-2.1,2.1l7.4,7.4c2.1,2.1,5.6,2.1,7.7,0
		C45.4,21.8,45.4,18.3,43.3,16.2 M41.2,21.8c-1,1-2.6,1-3.6,0l-1.8-1.8l1.8-1.8c1-1,2.6-1,3.6,0C42.2,19.3,42.2,20.9,41.2,21.8"/>
	<polygon class="st1" points="22.5,29.3 24.6,31.3 28.1,27.8 30.2,25.7 33.8,22.1 31.7,20.1 28.1,23.6 26.1,25.7 	"/>
	<path class="st2" d="M22.5,22.1l-1-1l-1-1l-3.6,3.6l-2.1,2.1l-4.9,4.9c-2.1,2.1-2.1,5.6,0,7.7c2.1,2.1,5.6,2.1,7.7,0l4.9-4.9
		l-2.1-2.1l-4.9,4.9c-1,1-2.6,1-3.6,0c-1-1-1-2.6,0-3.6l4.9-4.9l2.1-2.1L22.5,22.1z"/>
	<path class="st3" d="M26.1,14.4L26.1,14.4L22.5,18l2.1,2.1L35.3,9.3c2.1-2.1,2.1-5.6,0-7.7c-2.1-2.1-5.6-2.1-7.7,0l-5.1,5.1
		l2.1,2.1l5.1-5.1c1-1,2.6-1,3.6,0c1,1,1,2.6,0,3.6l-5.1,5.1l0,0L26.1,14.4z"/>
	<path class="st4" d="M9.4,16.2c-2.1-2.1-5.6-2.1-7.7,0c-2.1,2.1-2.1,5.6,0,7.7c2.1,2.1,5.6,2.1,7.7,0l1.8-1.8l3.6,3.6l2.1-2.1
		L9.4,16.2z M7.3,21.8c-1,1-2.6,1-3.6,0c-1-1-1-2.6,0-3.6c1-1,2.6-1,3.6,0l1.8,1.8L7.3,21.8z"/>
	<rect x="10.3" y="12.9" transform="matrix(0.7071 -0.7071 0.7071 0.7071 -5.2512 16.1383)" class="st5" width="13" height="2.9"/>
	<path class="st6" d="M14.8,14.4l2.1-2.1l-5-5c-1-1-1-2.6,0-3.6c1-1,2.6-1,3.6,0l10.6,10.6l2.1-2.1L17.5,1.7c-2.1-2.1-5.6-2.1-7.7,0
		c-2.1,2.1-2.1,5.6,0,7.7L14.8,14.4z"/>
	<polygon class="st0" points="26.1,14.4 28.1,12.3 28.1,12.3 26.1,14.4 	"/>
	<polygon class="st7" points="22.5,22.1 26.1,25.7 28.1,23.6 18.9,14.4 16.9,16.5 21.5,21.1 	"/>
	<path class="st8" d="M22.5,22.1l-1-1L22.5,22.1z"/>
	<path class="st9" d="M30.2,25.7l-2.1,2.1l5,5c1,1,1,2.6,0,3.6c-1,1-2.6,1-3.6,0L18.9,25.7l-2.1,2.1l10.6,10.6
		c2.1,2.1,5.6,2.1,7.7,0c2.1-2.1,2.1-5.6,0-7.7L30.2,25.7z"/>
</g>
</svg>
